<svg width="26" height="12" viewBox="0 0 26 12" fill="none" xmlns="http://www.w3.org/2000/svg">
<path d="M0.46967 5.46967C0.176777 5.76256 0.176777 6.23744 0.46967 6.53033L5.24264 11.3033C5.53553 11.5962 6.01041 11.5962 6.3033 11.3033C6.59619 11.0104 6.59619 10.5355 6.3033 10.2426L2.06066 6L6.3033 1.75736C6.59619 1.46447 6.59619 0.989593 6.3033 0.696699C6.01041 0.403806 5.53553 0.403806 5.24264 0.696699L0.46967 5.46967ZM25.5303 6.53033C25.8232 6.23744 25.8232 5.76256 25.5303 5.46967L20.7574 0.696699C20.4645 0.403806 19.9896 0.403806 19.6967 0.696699C19.4038 0.989593 19.4038 1.46447 19.6967 1.75736L23.9393 6L19.6967 10.2426C19.4038 10.5355 19.4038 11.0104 19.6967 11.3033C19.9896 11.5962 20.4645 11.5962 20.7574 11.3033L25.5303 6.53033ZM1 6.75H25V5.25H1V6.75Z" fill="white"/>
</svg>